<svg xmlns="http://www.w3.org/2000/svg" viewBox="0 0 1880 1094" fill="none" preserveAspectRatio="none">
  <g fill="#6E60EE" clip-path="url(#a)">
    <path d="M481.444 442.868c-.742-1.42-2.108-1.666-2.173.128v13.351l-13.154-5.373v-63.247l22.114 14.995c8.002 5.425 13.713 17.184 13.713 27.907 0 8.629-3.754 13.574-9.583 13.04l10.831 22.439-12.52-5.105-9.239-18.145.011.01Zm4.109-13.04c3.893 2.114 6.378-.363 6.378-5.052 0-4.539-2.485-9.911-6.378-12.346-3.733-2.329-6.841-.203-6.841 4.624 0 4.988 3.108 10.755 6.841 12.784v-.01ZM432.728 438.554c-18.349-7.519-32.783-29.232-32.783-49.054v-46.641l21.888 14.846v49.086c0 5.222 1.194 6.525 6.034 8.854l9.379 4.507c4.366 2.093 5.388 1.911 5.388-2.916v-45.423l16.284 11.044v37.487c0 15.935-10.293 24.543-26.19 18.22v-.01ZM337.114 399.953c-38.548-15.561-76.106-58.068-76.106-91.999s37.558-35.64 76.106-9.335c31.794 21.702 53.638 55.879 53.638 79.802 0 23.913-21.844 34.369-53.638 21.532Zm-29.631-47.613c0 3.973 1.774 6.601 6.227 8.737l44.141 21.179c3.42 1.644 4.743.758 4.743-2.66v-32.927c0-3.417-1.323-5.746-4.743-7.818l-44.141-26.775c-4.453-2.702-6.227-2.008-6.227 1.965v38.299ZM132.939 314.971v-48.295L0 71.6562l114.181 77.4208 46.249 78.531c6.281 10.509 13.477 14.674 19.446 11.492l36.784-20.528 57.36 38.898-70.922 43.82v42.326l-70.159-28.645ZM501.138 476.274v51.723l-16.972-1.591c-1.517-.139-2.098 4.475-2.098 8.833 0 4.667.646 8.725 1.635 10.285l11.433 17.334c5.819 8.928 8.336 31.367 8.336 56.081 0 30.62-3.657 62.853-11.24 67.968l-21.102 14.216v-56.242l20.188-8.651c1.452-.619 2.302-6.002 2.302-11.599 0-5.607-.581-10.135-1.915-11.78l-11.648-14.845c-7.056-9.057-10.487-35.095-10.487-63.739 0-35.234 4.765-67.456 13.563-64.348l18.026 6.365-.021-.01ZM414.425 739.303v-90.001l18.607-197.06 20.694 7.305 13.971 170.637v73.245l-13.444 9.056V678.48c0-11.567-1.355-17.249-3.883-16.084l-13.509 6.258c-2.861 1.324-4.453 8.929-4.453 21.521v37.017l-17.994 12.111h.011Zm22.35-143.071c-.688 8.031.258 15.7 2.13 15.241l9.529-2.361c1.71-.427 2.56-8.095 1.947-15.433l-4.561-53.165c-.806-9.111-3.248-9.26-4.065-.096l-4.969 55.814h-.011ZM339.609 789.691V419.25l69.116 24.404v71.547l-34.622-3.728c-3.066-.331-4.83 5.618-4.83 16.48v16.522c0 10.862 1.764 16.917 4.83 16.778l31.417-1.409v67.701l-31.417 8.619c-3.066.844-4.83 7.465-4.83 18.327v17.003c0 10.862 1.764 16.244 4.83 14.931l34.622-14.824v71.546l-69.116 46.555v-.011ZM142.789 922.245V349.789l106.427 37.573c48.808 17.227 78.418 108.478 78.418 219.039 0 110.561-29.599 211.296-78.418 244.17l-106.427 71.674Zm107.438-190.47c24.576-10.103 41.107-60.652 41.107-120.151 0-61.828-16.531-108.436-41.107-110.946-27.309-2.787-49.68 49.812-49.68 125.364 0 72.7 22.371 116.958 49.68 105.733ZM4.85156 1015.14V301.102L106.556 337.008v609.655L4.85156 1015.14ZM1849.14 313.453v168.821l-129.12 12.56c-8.35.812-11.48 12.079-11.48 22.3 0 10.958 3.45 20.399 8.88 24.02l76.84 49.396c52.88 34.347 79.94 115.527 79.94 200.253 0 104.932-38.36 181.786-102.34 139.76l-113.24-74.377V742.571l106.64 44.333c10.54 4.379 16.98-7.123 16.98-22.962 0-15.839-4.43-30.588-14.28-39.388l-69.81-63.633c-32.01-29.306-45.57-84.533-45.57-141.255 0-69.774 19.14-143.681 61.63-158.654l134.92-47.548.01-.011ZM1440.86 717.405c-14.33-9.654-24.77-69.901-24.77-135.947 0-66.036 10.43-123.11 24.77-128.408 8.78-3.246 17.09 13.03 22.93 42.678 6.1-33.204 15.77-56.968 27.5-61.293 23.54-8.694 45.34 64.519 45.34 165.371 0 100.842-21.8 167.422-45.34 151.562-11.73-7.903-21.4-34.603-27.5-69.666-5.84 27.864-14.15 41.61-22.93 35.693v.01Zm-11.42-89.809c0 9.164.6 13.468 2.17 14.076l19.21 7.477c1.85.715 2.57-3.471 2.57-13.543v-96.954c0-10.072-.73-14.483-2.57-14.322l-19.21 1.623c-1.57.128-2.17 4.251-2.17 13.414v88.229Zm45.58 15.251c0 10.883.86 16.063 3.08 16.918l27.63 10.755c2.7 1.046 3.77-3.952 3.77-16.138V536.986c0-12.186-1.07-17.516-3.77-17.292l-27.63 2.339c-2.22.193-3.08 5.095-3.08 15.989v104.825ZM1393.61 541.036c0-12.143-.39-17.301-2.41-17.077l-7.49.833v-47.335l32.26-11.363v55.109l-9.38 1.047c-2.29.256-2.72 5.767-2.72 18.509v148.08l-10.25-6.739V541.036h-.01ZM1696.02 305.655c-3.95-.588-11.03 3.727-11.34 7.978v30.011l-55.7 22.738v-119.18l107.85-73.138c61.98-42.026 119.63-54.532 119.63-18.423 0 29.093-39.4 72.123-89.87 104.399l104.52 7.486-117.13 47.816-57.96-9.698v.011Zm23.58-48.285c25.48-13.853 43.58-34.262 43.58-47.217 0-12.517-18.1-11.791-43.58 4.122-21.58 13.479-37.76 32.66-37.76 43.415 0 11.118 16.18 11.417 37.76-.32ZM1544.96 402.287c-28.22 11.268-45.47 1.741-45.47-18.85v-48.435l27.72-18.797v59.863c0 6.365 1.78 6.397 9.43 2.734l16.71-8.032c8.78-4.218 10.94-6.248 10.94-13.318v-66.398l41.19-27.929v64.882c0 27.587-27.61 60.834-60.52 74.27v.01ZM1451.98 439.826c-17.27 6.974-29.63-2.66-29.63-20.805 0-18.146 12.36-41.204 29.63-52.984 19.87-13.554 38.19-7.22 38.19 16.159 0 23.378-18.32 49.609-38.19 57.63Zm-13.77-17.195c0 2.542.73 3.321 2.6 2.413l23.36-11.214c2.28-1.089 3.17-2.787 3.17-5.618v-27.287c0-2.831-.9-3.546-3.17-2.168l-23.36 14.172c-1.88 1.143-2.6 2.713-2.6 5.244v24.458ZM1397.06 461.061v-17.836l-13.74-29.434 11.28-7.658 6.47 14.28c1 2.146 2.18 1.463 3.2-1.891l7.1-23.752 14.88-10.082-17.68 52.856v18.818l-11.53 4.71.02-.011ZM1640.24 734.919l-40.2-16.714c-12.32-5.127-18.67-27.096-18.67-62.992V407.797L1549.58 419v365.539l90.66 59.553V734.909v.01ZM1215.1 401.902l180.3-214.543h217.95l-267.34 214.543H1215.1ZM744.871 401.902l-40.699-65.96 105.469-148.583h323.089l90.4 148.583-47.39 65.96h-127.62l8.64-26.743h-190.2l5.926 26.743H744.871Zm120.14-65.96h197.279l-93.348-94.584-103.931 94.584ZM560.453 401.908l-53.305-44.846h164.84l33.192 44.846H560.453ZM1579.8 177.643c-55.17 0-66.33-29.84-20.34-76.406C1613.53 46.48 1713.22 0 1786.33 0c73.09 0 64.1 46.48-9.09 101.226-62.25 46.577-142.25 76.406-197.43 76.406l-.01.011Zm-3.43-38.182h95.1l101.73-81.8202h-108.4l-88.43 81.8202ZM1293.53 175.477 1402.84 3.80469h115.47c73.4 0 83.82 44.63241 32.41 97.44531-43.96 45.167-113.3 74.238-169.21 74.238h-87.96l-.02-.011Zm117.58-34.763c28.91 0 64.59-16.256 85.36-39.699 23.37-26.3689 17.31-47.1204-15.9-47.1204-32.89 0-72.15 20.7515-90.99 47.1204-16.76 23.443-7.11 39.699 21.52 39.699h.01ZM1125.35 175.477l56.71-171.67231h114.46c48.48 0 69.77 31.72001 45.94 70.58511-17.33 28.2602-51.8 48.7652-85.49 55.6652l28.91 45.433h-60.52l-32.83-41.417-17.44 41.417h-49.75l.01-.011Zm114.6-74.462c19.51 0 38.48-11.6943 46.34-26.6252 7.96-15.1124 1.04-28.4412-20.21-28.4412-19.65 0-41.13 13.3288-47.51 28.4412-6.31 14.9309 3.31 26.6252 21.37 26.6252h.01ZM927.047 175.477 993.473 3.80469h103.347L1117.6 175.488h-51.55l-5.1-26.668h-72.069l-12.595 26.668h-49.239v-.011Zm78.613-62.286h48.55l-14.03-72.8388-34.51 72.8388h-.01ZM747.653 175.477 686.281 3.80469h90.896L865.179 123.155 849.551 3.80469h62.285l7.648 171.68331h-62.576L764.754 63.5174l30.352 111.9706h-47.443l-.01-.011ZM642.899 177.643c-55.177 0-117.451-29.84-151.235-76.406C451.933 46.48 472.025 0 545.13 0c73.106 0 143.716 46.48 164.313 101.226 17.521 46.577-11.358 76.406-66.534 76.406l-.01.011ZM623.7 142.74c28.266 0 40.505-17.44 29.158-41.748-12.788-27.3951-46.851-49.8448-79.57-49.8448-32.718 0-42.366 22.4497-24.996 49.8448 15.424 24.318 46.873 41.748 75.408 41.748ZM402.207 175.477 232.828 3.80469h178.091L445.95 51.1818h-83.345c-12.584 0-16.682 5.9596-7.68 15.9989 7.605 8.4801 23.114 15.7532 35.096 15.7532h70.427l26.663 35.3941h-66.544c-11.326 0-14.133 6.355-7.981 13.211 7.303 8.149 19.651 12.849 30.481 12.849h71.815l22.996 31.089H402.207ZM253.737 175.477 37.9375 3.80469h65.3075L240.164 121.19c16.241 13.927 34.203 21.168 51.885 21.168h61.188l33.611 33.13h-133.1l-.011-.011ZM1323.54 693.035l22.32 16.765h-78.94c-6.44 0-7.37 1.462-5.92 2.85 1.56 1.494 5.71 2.796 10.54 3.308l60 6.083c34.23 3.5 59.96 12.432 74.01 22.698 18.64 13.617 15.93 27.917-27.73 27.917h-106.35l-20.66-22.666h95.2c7.54 0 9.46-2.092 6.66-4.408-2.81-2.315-8.07-4.172-15.86-5.005l-62.66-6.787c-33.81-3.682-55.54-12.39-63.44-21.247-9.14-10.256-.07-19.519 33.89-19.519h78.94v.011Zm-195.41 56.581c-4.23-1.601-10.01-.982-8.83 1.74l11.45 21.3h-58.83l-30.31-79.621h81.27c33.72 0 67.65 9.541 79.61 23.52 10.46 12.23-.41 22.614-27.04 26.263l82.44 29.827h-70.11l-59.66-23.04.01.011Zm5.62-21.589c17.55 0 25.36-5.25 20.97-11.461-4.09-5.784-18.18-10.511-34.57-10.511-15.16 0-24.88 4.727-21.81 10.511 3.29 6.211 19.16 11.461 35.4 11.461h.01Zm-185.158 46.315c-55.788-.139-91.118-19.081-86.921-40.21l8.146-41.097h47.788l-1.772 47.542c-.218 5.966 3.067 6.819 16.924 6.819h28.272c13.856 0 17.069-.853 16.219-6.819l-6.715-47.542h47.787l12.42 41.097c6.38 21.129-27.27 40.071-82.148 40.21Zm-228.925.022c-61.478 0-92.3-22.123-71.904-46.219C665.568 707.1 717.107 692 765.185 692c48.077 0 82.92 15.111 77.469 36.145-6.239 24.096-61.52 46.219-122.987 46.219ZM692.7 742.957c-2.207 3.244-.704 4.706 5.669 4.706h72.112c6.384 0 9.493-1.462 10.871-4.706l12.064-28.408c1.14-2.689-.591-3.863-6.302-3.863H722.59c-5.711 0-8.748 1.174-10.572 3.863l-19.328 28.408h.01Zm-201.668 29.699 34.127-29.357-2.694-50.264h50.824l2.549 21.813c.498 3.458 5.576 3.458 13.577 0l49.922-21.813h50.824l-111.877 50.264-29.64 29.357h-57.633.021ZM1691.27 1084.8l-334.91-302.358h100.79l61.95 45.258h-62.38c-4.9 0-3.01 3.853 5.43 10.853l13.37 11.088c9.16 7.588 17.45 11.995 22.74 11.995h60.39l84.55 62.461h-68.49c-5.99 0-2.39 5.784 10.32 16.328l20.96 17.373c14.1 11.696 26.05 18.515 32.64 18.515h83.87L1871 1084.81h-179.73v-.01Zm-368.24-238.702c-11.44-13.03-17.83-18.387-26.77-18.387h-34.7l-34.93-45.258h119.29l48.91 45.258h-34.7c-8.95 0-5.42 5.357 7.29 18.387l232.88 238.712h-67.95l-209.31-238.712h-.01Zm-67.33 239.452-63.43-133.675-42.87-169.433h48.4l172.12 169.433 106.18 133.675h-64.63l-46.12-65.84c-13.74-19.62-26.16-29.812-35.82-29.812h-48.62c-9.67 0-9.15 10.192 2 29.812l37.41 65.84h-64.63.01Zm-29.02-186.606c3.04 8.527 11.06 17.342 16.7 17.342h30.02c5.65 0 2.48-8.815-5.29-17.342l-48.78-53.177c-7.26-7.833-13.79-7.833-11.09 0l18.44 53.177ZM1057.19 1084.8l-56.46-302.358h100.8l20.26 45.258h-62.38c-4.9 0-6.57 3.853-4.57 10.853l3.16 11.088c2.17 7.588 6.41 11.995 11.69 11.995h60.39l27.04 62.461h-68.49c-5.99 0-7.73 5.784-4.72 16.328l4.96 17.373c3.33 11.696 9 18.515 15.59 18.515h83.87l48.58 108.497h-179.73l.01-.01ZM907.469 974.723c-3.13-6.787-9.483-4.194-10.395 7.492L891.55 1084.8h-67.271l45.829-302.358h66.121c27.443 0 52.274 26.69 58.482 69.472 6.019 41.502-7.669 80.208-35.423 94.647l77.682 138.239h-80.18l-49.321-110.087v.01Zm19.66-84.017c16.344 0 26.137-18.228 25.07-38.781-.943-18.259-10.872-32.58-24.863-32.58-12.944 0-24.209 14.321-25.277 32.58-1.202 20.564 9.939 38.781 25.06 38.781h.01ZM683.622 1094c-71.614 0-69.821-102.906-16.914-202.868 37.683-71.19 87.947-111.465 127.298-111.465 29.703 0 48.772 21.578 51.975 60.156l-45.404 14.439c-1.368-16.914-9.638-27.117-23.246-27.117-21.049 0-47.228 25.463-63.81 63.603-18.82 43.252-15.659 82.449 12.53 82.449 21.349 0 44.481-23.21 59.571-53.422l43.238 23.52C799.737 1024.74 740.778 1094 683.622 1094Zm-332.429 0c-70.93 0-18.976-107.901 77.055-202.868 69.396-68.629 144.118-111.465 183.097-111.465 38.978 0 42.781 42.847-1.42 111.465C548.758 986.099 422.112 1094 351.193 1094Zm77.542-146.906c-12.022 13.255-15.028 19.348-8.55 19.348h73.147c6.467 0 13.556-6.093 23.464-19.348l75.977-101.604c6.311-8.441 7.099-12.091 2.145-12.091H538.84c-4.965 0-10.219 3.65-17.878 12.091l-92.217 101.604h-.01Zm-47.321-100.996c15.856-13.03 20.665-18.387 11.732-18.387h-34.698l59.819-45.258h119.288l-45.839 45.258h-34.698c-8.944 0-16.634 5.357-31.206 18.387L158.955 1084.81H91l290.414-238.712Z"/>
  </g>
  <defs>
    <clipPath id="a">
      <path fill="#fff" d="M0 0h1921v1094H0z"/>
    </clipPath>
  </defs>
</svg>
